<svg xmlns="http://www.w3.org/2000/svg" xmlns:xlink="http://www.w3.org/1999/xlink" id="Layer_1" x="0" y="0" version="1.1" viewBox="0 0 167.4 66.4" xml:space="preserve" style="enable-background:new 0 0 167.4 66.4"><style type="text/css">.st0{fill:#2c662d}</style><path d="M0,40.1V0h14.7v41.6c0,7.8,2.9,12.1,9.1,12.1S33,49.4,33,41.6V0h14.2v40.1c0,16.9-7.6,26.3-23.4,26.3	S0,57,0,40.1z" class="st0"/><path d="M58.9,56.6c18.3-14.8,30.6-25.3,30.6-34.1c0-6-3.8-9.3-10.5-9.3c-5.1,0-9.3,3-12.9,6.3l-8-7.6	c6.6-6.5,13-9.8,22.8-9.8c13.4,0,22.5,7.7,22.5,19.5c0,10.4-11.3,21.6-23.7,32.1h27v11h-48V56.6z" class="st0"/><polygon points="124.1 0 167.4 0 167.4 12.4 138.8 12.4 138.8 27.5 163.2 27.5 163.2 39.9 138.8 39.9 138.8 65.2 124.1 65.2" class="st0"/></svg>